<svg xmlns="http://www.w3.org/2000/svg" width="81" height="81" viewBox="0 0 81 81">
  <g id="Groupe_10598" data-name="Groupe 10598" transform="translate(-1369 -1697)">
    <rect id="Rectangle_1446" data-name="Rectangle 1446" width="81" height="81" rx="10" transform="translate(1369 1697)" fill="#e6f3fa"/>
    <g id="slideshare" transform="translate(1388.305 1719)">
      <path id="Tracé_528" data-name="Tracé 528" d="M20.848,15.416a3.815,3.815,0,0,1-1.418,2.969,5,5,0,0,1-3.406,1.24,5,5,0,0,1-3.406-1.24,3.827,3.827,0,0,1,0-5.948,5.025,5.025,0,0,1,3.406-1.229,5.025,5.025,0,0,1,3.406,1.229A3.8,3.8,0,0,1,20.848,15.416Zm11.211,0a3.826,3.826,0,0,1-1.407,2.969,5.314,5.314,0,0,1-6.823,0,3.827,3.827,0,0,1,0-5.948,5.349,5.349,0,0,1,6.823,0A3.817,3.817,0,0,1,32.06,15.416Zm5.025,3.75V5.271A3.714,3.714,0,0,0,36.37,2.7a3.31,3.31,0,0,0-2.479-.76H9.056a3.407,3.407,0,0,0-2.512.708,3.912,3.912,0,0,0-.659,2.625v14.02a16.826,16.826,0,0,0,1.976.833q1.016.354,1.809.583a14.486,14.486,0,0,0,1.809.385q1.016.156,1.586.229a14.17,14.17,0,0,0,1.563.083q.994.01,1.307.01t1.262-.042q.949-.042.994-.042a2.969,2.969,0,0,1,2.122.562,2.187,2.187,0,0,0,.223.187A13.9,13.9,0,0,0,21.9,23.145q.156-1.9,2.635-1.812.112,0,.815.031l.96.042q.257.01,1.016.021t1.184-.021l1.217-.094a11.671,11.671,0,0,0,1.362-.177l1.385-.281a11.4,11.4,0,0,0,1.5-.406q.681-.24,1.507-.562T37.085,19.166Zm3.64-.1a20.555,20.555,0,0,1-8.308,5.25Q34.293,30.248,31.9,34a6.856,6.856,0,0,1-4.087,3.083,5.127,5.127,0,0,1-4.065-.312,3.451,3.451,0,0,1-1.831-3.416L21.9,26.561V26.54l-.547-.125q-.368-.083-.525-.1L20.8,33.352a3.42,3.42,0,0,1-1.854,3.416,5.188,5.188,0,0,1-4.087.312A6.834,6.834,0,0,1,10.8,33.957q-2.345-3.75-.491-9.645A20.555,20.555,0,0,1,2,19.061q-.558-.771-.089-1.312t1.34.021a2.693,2.693,0,0,1,.257.146,1.651,1.651,0,0,1,.234.167V3.625a3.513,3.513,0,0,1,1.05-2.562A3.446,3.446,0,0,1,7.337,0H35.41a3.446,3.446,0,0,1,2.546,1.062,3.513,3.513,0,0,1,1.05,2.562V18.082l.469-.312q.871-.562,1.34-.021T40.725,19.061Z" transform="translate(0 0)" fill="#0b1466"/>
    </g>
  </g>
</svg>
