<svg xmlns="http://www.w3.org/2000/svg" width="81" height="81" viewBox="0 0 81 81">
  <g id="Groupe_10596" data-name="Groupe 10596" transform="translate(-607 -1706)">
    <rect id="Rectangle_1444" data-name="Rectangle 1444" width="81" height="81" rx="10" transform="translate(607 1706)" fill="#e6f3fa"/>
    <g id="euro" transform="translate(594.48 1694.56)">
      <path id="Tracé_523" data-name="Tracé 523" d="M60.3,36.975h5.882V33.44H60.3c-7.23,0-13.411,5.154-15.8,12.372H39.52v3.535h4.146a21.4,21.4,0,0,0,0,6.186H39.52v3.535H44.5c2.392,7.218,8.573,12.372,15.8,12.372h5.882V67.905H60.3C55,67.9,50.18,64.461,47.9,59.068H63.049V55.533H46.855a17.471,17.471,0,0,1,0-6.186H63.049V45.812H47.9C50.18,40.419,55,36.98,60.3,36.975Z" fill="#0b1466"/>
    </g>
  </g>
</svg>
