<svg xmlns="http://www.w3.org/2000/svg" width="81" height="81" viewBox="0 0 81 81">
  <g id="G" transform="translate(-223 -1706)">
    <rect id="Rectangle_1443" data-name="Rectangle 1443" width="81" height="81" rx="10" transform="translate(223 1706)" fill="#e6f3fa"/>
    <g id="document-download" transform="translate(211 1715.002)">
      <path id="Tracé_520" data-name="Tracé 520" d="M133.622,117.536l-1.926-1.926-3.523,3.523V108h-2.724v11.132l-3.523-3.523L120,117.536l6.811,6.811Z" transform="translate(-64.929 -74.206)" fill="#0b1466"/>
      <path id="Tracé_521" data-name="Tracé 521" d="M52.347,47.417H38.724V14.723h10.9V22.9a2.733,2.733,0,0,0,2.724,2.724H60.52v4.087h2.724V22.9a1.24,1.24,0,0,0-.409-.954L53.3,12.407A1.238,1.238,0,0,0,52.347,12H38.724A2.733,2.733,0,0,0,36,14.723V47.417a2.733,2.733,0,0,0,2.724,2.724H52.347Zm0-32.149L59.975,22.9H52.347Z" fill="#0b1466"/>
    </g>
  </g>
</svg>
