<svg xmlns="http://www.w3.org/2000/svg" width="32" height="32" viewBox="0 0 32 32">
  <g id="Groupe_10602" data-name="Groupe 10602" transform="translate(-4273 224)">
    <circle id="Ellipse_12" data-name="Ellipse 12" cx="16" cy="16" r="16" transform="translate(4273 -224)" fill="#e6f3fa"/>
    <g id="bx-code-curly" transform="translate(4279 -218)">
      <path id="Tracé_438" data-name="Tracé 438" d="M22.954,36.149h1.007V34.134h-1c-.31-.006-3.033-.174-3.033-4.03a5.153,5.153,0,0,0-1.513-4.03,5.153,5.153,0,0,0,1.513-4.03c0-3.856,2.723-4.024,3.022-4.03h1.007V16H22.952c-1.742,0-5.035,1.273-5.035,6.045,0,2.821-1.691,3.012-2.029,3.022l.014,2.015c.083,0,2.015.034,2.015,3.022C17.917,34.876,21.21,36.145,22.954,36.149Zm13.1-11.082c-.083,0-2.015-.034-2.015-3.022C34.037,17.273,30.743,16,29,16H27.992v2.015h1c.31.006,3.033.174,3.033,4.03a5.153,5.153,0,0,0,1.513,4.03,5.153,5.153,0,0,0-1.513,4.03c0,3.856-2.723,4.024-3.022,4.03H27.992v2.015H29c1.742,0,5.035-1.273,5.035-6.045,0-2.821,1.691-3.012,2.029-3.022Z" transform="translate(-15.888 -16)" fill="#243ff9"/>
    </g>
  </g>
</svg>
