<svg xmlns="http://www.w3.org/2000/svg" width="203.678" height="33" viewBox="0 0 203.678 33">
  <g id="Groupe_10595" data-name="Groupe 10595" transform="translate(-182.244 -47)">
    <text id="Web_Masters" data-name="Web Masters" transform="translate(224.922 74)" fill="#fff" font-size="27" font-family="Lato-Bold, Lato" font-weight="700"><tspan x="0" y="0">Web Masters</tspan></text>
    <g id="bx-code-curly" transform="translate(182.244 48.552)">
      <path id="Tracé_438" data-name="Tracé 438" d="M26.772,47.034h1.552v-3.1H26.789c-.478-.009-4.672-.268-4.672-6.207,0-3.093-1.032-5.037-2.331-6.207,1.3-1.17,2.331-3.114,2.331-6.207,0-5.938,4.194-6.2,4.655-6.207h1.552V16H26.769c-2.683.006-7.756,1.961-7.756,9.31,0,4.345-2.6,4.64-3.125,4.655l.022,3.1c.127,0,3.1.053,3.1,4.655C19.013,45.073,24.086,47.028,26.772,47.034ZM46.944,29.966c-.127,0-3.1-.053-3.1-4.655,0-7.349-5.073-9.3-7.759-9.31H34.53v3.1h1.535c.478.009,4.672.268,4.672,6.207,0,3.093,1.032,5.037,2.331,6.207-1.3,1.17-2.331,3.114-2.331,6.207,0,5.938-4.194,6.2-4.655,6.207H34.53v3.1h1.555c2.683-.006,7.756-1.961,7.756-9.31,0-4.345,2.6-4.64,3.125-4.655Z" transform="translate(-15.888 -16)" fill="#fff"/>
    </g>
  </g>
</svg>
